<svg xmlns="http://www.w3.org/2000/svg" width="18.96" height="13.05" viewBox="0 0 18.96 13.05"><defs><style>.a{fill:#fff;}</style></defs><g transform="translate(-1482.53 -507.01)"><path class="a" d="M1500.69,508.27c-.51-.92-1.07-1.08-2.21-1.15s-3.99-.11-6.47-.11-5.34.03-6.47.11-1.69.23-2.21,1.15-.8,2.49-.8,5.26v.01c0,2.76.27,4.35.8,5.25.52.92,1.08,1.08,2.21,1.16s3.99.11,6.47.11,5.33-.04,6.47-.1c1.14-.08,1.69-.24,2.21-1.16.53-.9.8-2.49.8-5.25v-.01c.01-2.78-.26-4.35-.8-5.27Zm-11.05,8.82v-7.11l5.93,3.56Zm0,0"/></g></svg>