<svg xmlns="http://www.w3.org/2000/svg" width="13.06" height="13.05" viewBox="0 0 13.06 13.05"><defs><style>.a{fill:#fff;}</style></defs><g transform="translate(-1530.84 -504.84)"><rect class="a" width="2.92" height="8.96" transform="translate(1530.85 508.92)"/><path class="a" d="M1541.71,509.03l-.09-.03a.5.5,0,0,0-.12-.02,2.62,2.62,0,0,0-.52-.05,4.053,4.053,0,0,0-3.13,1.71v-1.71h-2.92v8.96h2.92V513s2.2-3.07,3.13-.82v5.7h2.92v-6.05a2.916,2.916,0,0,0-2.19-2.8Zm0,0"/><path class="a" d="M1533.7,506.27a1.43,1.43,0,1,1-1.43-1.43,1.43,1.43,0,0,1,1.43,1.43Zm0,0"/></g></svg>